<mxfile host="app.diagrams.net" agent="Mozilla/5.0 (Windows NT 10.0; Win64; x64) AppleWebKit/537.36 (KHTML, like Gecko) Chrome/131.0.0.0 Safari/537.36" version="25.0.3">
  <diagram id="C5RBs43oDa-KdzZeNtuy" name="Page-1">
    <mxGraphModel dx="794" dy="492" grid="1" gridSize="10" guides="1" tooltips="1" connect="1" arrows="1" fold="1" page="1" pageScale="1" pageWidth="827" pageHeight="1169" math="0" shadow="0">
      <root>
        <mxCell id="WIyWlLk6GJQsqaUBKTNV-0" />
        <mxCell id="WIyWlLk6GJQsqaUBKTNV-1" parent="WIyWlLk6GJQsqaUBKTNV-0" />
        <mxCell id="WIyWlLk6GJQsqaUBKTNV-2" value="" style="rounded=0;html=1;jettySize=auto;orthogonalLoop=1;fontSize=11;endArrow=block;endFill=0;endSize=8;strokeWidth=1;shadow=0;labelBackgroundColor=none;edgeStyle=orthogonalEdgeStyle;" parent="WIyWlLk6GJQsqaUBKTNV-1" source="WIyWlLk6GJQsqaUBKTNV-3" target="WIyWlLk6GJQsqaUBKTNV-6" edge="1">
          <mxGeometry relative="1" as="geometry" />
        </mxCell>
        <mxCell id="WIyWlLk6GJQsqaUBKTNV-3" value="inicio" style="rounded=1;whiteSpace=wrap;html=1;fontSize=12;glass=0;strokeWidth=1;shadow=0;" parent="WIyWlLk6GJQsqaUBKTNV-1" vertex="1">
          <mxGeometry x="160" y="80" width="120" height="40" as="geometry" />
        </mxCell>
        <mxCell id="WIyWlLk6GJQsqaUBKTNV-4" value="Yes" style="rounded=0;html=1;jettySize=auto;orthogonalLoop=1;fontSize=11;endArrow=block;endFill=0;endSize=8;strokeWidth=1;shadow=0;labelBackgroundColor=none;edgeStyle=orthogonalEdgeStyle;" parent="WIyWlLk6GJQsqaUBKTNV-1" source="WIyWlLk6GJQsqaUBKTNV-6" target="WIyWlLk6GJQsqaUBKTNV-10" edge="1">
          <mxGeometry y="20" relative="1" as="geometry">
            <mxPoint as="offset" />
          </mxGeometry>
        </mxCell>
        <mxCell id="WIyWlLk6GJQsqaUBKTNV-6" value="mostrar menu principal" style="rhombus;whiteSpace=wrap;html=1;shadow=0;fontFamily=Helvetica;fontSize=12;align=center;strokeWidth=1;spacing=6;spacingTop=-4;" parent="WIyWlLk6GJQsqaUBKTNV-1" vertex="1">
          <mxGeometry x="165" y="170" width="110" height="80" as="geometry" />
        </mxCell>
        <mxCell id="hkzROTVasC-A0H3_cOfX-4" style="edgeStyle=orthogonalEdgeStyle;rounded=0;orthogonalLoop=1;jettySize=auto;html=1;exitX=0.5;exitY=1;exitDx=0;exitDy=0;entryX=0.5;entryY=0;entryDx=0;entryDy=0;" parent="WIyWlLk6GJQsqaUBKTNV-1" source="WIyWlLk6GJQsqaUBKTNV-10" target="hkzROTVasC-A0H3_cOfX-1" edge="1">
          <mxGeometry relative="1" as="geometry" />
        </mxCell>
        <mxCell id="hkzROTVasC-A0H3_cOfX-6" style="edgeStyle=orthogonalEdgeStyle;rounded=0;orthogonalLoop=1;jettySize=auto;html=1;exitX=0;exitY=0.5;exitDx=0;exitDy=0;entryX=0.5;entryY=0;entryDx=0;entryDy=0;" parent="WIyWlLk6GJQsqaUBKTNV-1" target="hkzROTVasC-A0H3_cOfX-0" edge="1">
          <mxGeometry relative="1" as="geometry">
            <mxPoint x="70" y="400" as="targetPoint" />
            <mxPoint x="170" y="329.5" as="sourcePoint" />
          </mxGeometry>
        </mxCell>
        <mxCell id="WIyWlLk6GJQsqaUBKTNV-10" value="nuevo cliente" style="rhombus;whiteSpace=wrap;html=1;shadow=0;fontFamily=Helvetica;fontSize=12;align=center;strokeWidth=1;spacing=6;spacingTop=-4;" parent="WIyWlLk6GJQsqaUBKTNV-1" vertex="1">
          <mxGeometry x="170" y="290" width="100" height="80" as="geometry" />
        </mxCell>
        <mxCell id="hkzROTVasC-A0H3_cOfX-0" value="individual" style="rhombus;whiteSpace=wrap;html=1;" parent="WIyWlLk6GJQsqaUBKTNV-1" vertex="1">
          <mxGeometry x="20" y="410" width="100" height="80" as="geometry" />
        </mxCell>
        <mxCell id="hkzROTVasC-A0H3_cOfX-13" style="edgeStyle=none;rounded=0;orthogonalLoop=1;jettySize=auto;html=1;exitX=0.5;exitY=1;exitDx=0;exitDy=0;entryX=0.5;entryY=0;entryDx=0;entryDy=0;" parent="WIyWlLk6GJQsqaUBKTNV-1" source="hkzROTVasC-A0H3_cOfX-1" target="hkzROTVasC-A0H3_cOfX-14" edge="1">
          <mxGeometry relative="1" as="geometry">
            <mxPoint x="220" y="560" as="targetPoint" />
          </mxGeometry>
        </mxCell>
        <mxCell id="hkzROTVasC-A0H3_cOfX-1" value="acompanado" style="rhombus;whiteSpace=wrap;html=1;" parent="WIyWlLk6GJQsqaUBKTNV-1" vertex="1">
          <mxGeometry x="170" y="410" width="100" height="80" as="geometry" />
        </mxCell>
        <mxCell id="hkzROTVasC-A0H3_cOfX-2" value="grupo/familia" style="rhombus;whiteSpace=wrap;html=1;" parent="WIyWlLk6GJQsqaUBKTNV-1" vertex="1">
          <mxGeometry x="320" y="410" width="100" height="80" as="geometry" />
        </mxCell>
        <mxCell id="hkzROTVasC-A0H3_cOfX-11" value="" style="endArrow=classic;html=1;rounded=0;exitX=1;exitY=0.5;exitDx=0;exitDy=0;entryX=0.5;entryY=0;entryDx=0;entryDy=0;" parent="WIyWlLk6GJQsqaUBKTNV-1" source="WIyWlLk6GJQsqaUBKTNV-10" target="hkzROTVasC-A0H3_cOfX-2" edge="1">
          <mxGeometry width="50" height="50" relative="1" as="geometry">
            <mxPoint x="380" y="500" as="sourcePoint" />
            <mxPoint x="380" y="330" as="targetPoint" />
            <Array as="points">
              <mxPoint x="370" y="330" />
            </Array>
          </mxGeometry>
        </mxCell>
        <mxCell id="hkzROTVasC-A0H3_cOfX-14" value="datos&amp;nbsp;&lt;div&gt;personales&lt;/div&gt;" style="rhombus;whiteSpace=wrap;html=1;" parent="WIyWlLk6GJQsqaUBKTNV-1" vertex="1">
          <mxGeometry x="170" y="570" width="100" height="80" as="geometry" />
        </mxCell>
        <mxCell id="hkzROTVasC-A0H3_cOfX-16" value="" style="endArrow=classic;html=1;rounded=0;edgeStyle=orthogonalEdgeStyle;entryX=0;entryY=0.5;entryDx=0;entryDy=0;" parent="WIyWlLk6GJQsqaUBKTNV-1" target="hkzROTVasC-A0H3_cOfX-14" edge="1">
          <mxGeometry width="50" height="50" relative="1" as="geometry">
            <mxPoint x="69.5" y="490" as="sourcePoint" />
            <mxPoint x="70" y="620" as="targetPoint" />
          </mxGeometry>
        </mxCell>
        <mxCell id="hkzROTVasC-A0H3_cOfX-17" value="" style="endArrow=classic;html=1;rounded=0;edgeStyle=orthogonalEdgeStyle;entryX=1;entryY=0.5;entryDx=0;entryDy=0;" parent="WIyWlLk6GJQsqaUBKTNV-1" target="hkzROTVasC-A0H3_cOfX-14" edge="1">
          <mxGeometry width="50" height="50" relative="1" as="geometry">
            <mxPoint x="369.5" y="490" as="sourcePoint" />
            <mxPoint x="370" y="620" as="targetPoint" />
          </mxGeometry>
        </mxCell>
        <mxCell id="hkzROTVasC-A0H3_cOfX-18" value="" style="endArrow=classic;html=1;rounded=0;" parent="WIyWlLk6GJQsqaUBKTNV-1" edge="1">
          <mxGeometry width="50" height="50" relative="1" as="geometry">
            <mxPoint x="219.5" y="650" as="sourcePoint" />
            <mxPoint x="220" y="710" as="targetPoint" />
          </mxGeometry>
        </mxCell>
        <mxCell id="hkzROTVasC-A0H3_cOfX-19" value="reservaciÃ³n&lt;div&gt;por habitacion&lt;/div&gt;" style="rhombus;whiteSpace=wrap;html=1;" parent="WIyWlLk6GJQsqaUBKTNV-1" vertex="1">
          <mxGeometry x="170" y="710" width="100" height="80" as="geometry" />
        </mxCell>
        <mxCell id="hkzROTVasC-A0H3_cOfX-20" value="family room" style="rhombus;whiteSpace=wrap;html=1;" parent="WIyWlLk6GJQsqaUBKTNV-1" vertex="1">
          <mxGeometry x="30" y="830" width="100" height="80" as="geometry" />
        </mxCell>
        <mxCell id="hkzROTVasC-A0H3_cOfX-21" value="sencilla" style="rhombus;whiteSpace=wrap;html=1;" parent="WIyWlLk6GJQsqaUBKTNV-1" vertex="1">
          <mxGeometry x="170" y="830" width="100" height="80" as="geometry" />
        </mxCell>
        <mxCell id="hkzROTVasC-A0H3_cOfX-22" value="doble" style="rhombus;whiteSpace=wrap;html=1;" parent="WIyWlLk6GJQsqaUBKTNV-1" vertex="1">
          <mxGeometry x="314" y="830" width="100" height="80" as="geometry" />
        </mxCell>
        <mxCell id="hkzROTVasC-A0H3_cOfX-23" value="suite" style="rhombus;whiteSpace=wrap;html=1;" parent="WIyWlLk6GJQsqaUBKTNV-1" vertex="1">
          <mxGeometry x="430" y="830" width="100" height="80" as="geometry" />
        </mxCell>
        <mxCell id="hkzROTVasC-A0H3_cOfX-24" value="volver a menu" style="rhombus;whiteSpace=wrap;html=1;" parent="WIyWlLk6GJQsqaUBKTNV-1" vertex="1">
          <mxGeometry x="560" y="830" width="100" height="80" as="geometry" />
        </mxCell>
        <mxCell id="hkzROTVasC-A0H3_cOfX-25" value="" style="endArrow=classic;html=1;rounded=0;entryX=0.5;entryY=0;entryDx=0;entryDy=0;exitX=0.5;exitY=1;exitDx=0;exitDy=0;" parent="WIyWlLk6GJQsqaUBKTNV-1" source="hkzROTVasC-A0H3_cOfX-19" target="hkzROTVasC-A0H3_cOfX-21" edge="1">
          <mxGeometry width="50" height="50" relative="1" as="geometry">
            <mxPoint x="225" y="800" as="sourcePoint" />
            <mxPoint x="275" y="750" as="targetPoint" />
          </mxGeometry>
        </mxCell>
        <mxCell id="hkzROTVasC-A0H3_cOfX-26" value="" style="endArrow=classic;html=1;rounded=0;edgeStyle=orthogonalEdgeStyle;entryX=0.5;entryY=0;entryDx=0;entryDy=0;" parent="WIyWlLk6GJQsqaUBKTNV-1" target="hkzROTVasC-A0H3_cOfX-20" edge="1">
          <mxGeometry width="50" height="50" relative="1" as="geometry">
            <mxPoint x="170" y="749.5" as="sourcePoint" />
            <mxPoint x="80" y="749.5" as="targetPoint" />
          </mxGeometry>
        </mxCell>
        <mxCell id="hkzROTVasC-A0H3_cOfX-27" value="" style="endArrow=classic;html=1;rounded=0;edgeStyle=orthogonalEdgeStyle;entryX=0.5;entryY=0;entryDx=0;entryDy=0;" parent="WIyWlLk6GJQsqaUBKTNV-1" target="hkzROTVasC-A0H3_cOfX-24" edge="1">
          <mxGeometry width="50" height="50" relative="1" as="geometry">
            <mxPoint x="270" y="749.5" as="sourcePoint" />
            <mxPoint x="610" y="750" as="targetPoint" />
          </mxGeometry>
        </mxCell>
        <mxCell id="hkzROTVasC-A0H3_cOfX-28" value="" style="endArrow=classic;html=1;rounded=0;" parent="WIyWlLk6GJQsqaUBKTNV-1" edge="1">
          <mxGeometry width="50" height="50" relative="1" as="geometry">
            <mxPoint x="364" y="750" as="sourcePoint" />
            <mxPoint x="363.5" y="830" as="targetPoint" />
          </mxGeometry>
        </mxCell>
        <mxCell id="hkzROTVasC-A0H3_cOfX-29" value="" style="endArrow=classic;html=1;rounded=0;entryX=0.5;entryY=0;entryDx=0;entryDy=0;" parent="WIyWlLk6GJQsqaUBKTNV-1" target="hkzROTVasC-A0H3_cOfX-23" edge="1">
          <mxGeometry width="50" height="50" relative="1" as="geometry">
            <mxPoint x="480" y="750" as="sourcePoint" />
            <mxPoint x="505" y="750" as="targetPoint" />
          </mxGeometry>
        </mxCell>
        <mxCell id="hkzROTVasC-A0H3_cOfX-33" value="recursos de&amp;nbsp;&lt;div&gt;la habitacion&lt;/div&gt;" style="rhombus;whiteSpace=wrap;html=1;" parent="WIyWlLk6GJQsqaUBKTNV-1" vertex="1">
          <mxGeometry x="170" y="940" width="100" height="80" as="geometry" />
        </mxCell>
        <mxCell id="hkzROTVasC-A0H3_cOfX-34" value="" style="endArrow=classic;html=1;rounded=0;edgeStyle=orthogonalEdgeStyle;entryX=0;entryY=0.5;entryDx=0;entryDy=0;" parent="WIyWlLk6GJQsqaUBKTNV-1" target="hkzROTVasC-A0H3_cOfX-33" edge="1">
          <mxGeometry width="50" height="50" relative="1" as="geometry">
            <mxPoint x="79.5" y="910" as="sourcePoint" />
            <mxPoint x="80" y="980" as="targetPoint" />
          </mxGeometry>
        </mxCell>
        <mxCell id="hkzROTVasC-A0H3_cOfX-35" value="" style="endArrow=classic;html=1;rounded=0;" parent="WIyWlLk6GJQsqaUBKTNV-1" edge="1">
          <mxGeometry width="50" height="50" relative="1" as="geometry">
            <mxPoint x="219.5" y="910" as="sourcePoint" />
            <mxPoint x="220" y="940" as="targetPoint" />
            <Array as="points" />
          </mxGeometry>
        </mxCell>
        <mxCell id="hkzROTVasC-A0H3_cOfX-40" value="" style="endArrow=classic;html=1;rounded=0;entryX=1;entryY=0.5;entryDx=0;entryDy=0;exitX=0.5;exitY=1;exitDx=0;exitDy=0;edgeStyle=orthogonalEdgeStyle;" parent="WIyWlLk6GJQsqaUBKTNV-1" source="hkzROTVasC-A0H3_cOfX-22" target="hkzROTVasC-A0H3_cOfX-33" edge="1">
          <mxGeometry width="50" height="50" relative="1" as="geometry">
            <mxPoint x="310" y="970" as="sourcePoint" />
            <mxPoint x="360" y="920" as="targetPoint" />
          </mxGeometry>
        </mxCell>
        <mxCell id="hkzROTVasC-A0H3_cOfX-41" value="" style="endArrow=classic;html=1;rounded=0;exitX=0.5;exitY=1;exitDx=0;exitDy=0;edgeStyle=elbowEdgeStyle;" parent="WIyWlLk6GJQsqaUBKTNV-1" source="hkzROTVasC-A0H3_cOfX-23" edge="1">
          <mxGeometry width="50" height="50" relative="1" as="geometry">
            <mxPoint x="430" y="1000" as="sourcePoint" />
            <mxPoint x="360" y="980" as="targetPoint" />
          </mxGeometry>
        </mxCell>
        <mxCell id="Za5lP8cGglgqO1tzgdOd-0" value="" style="endArrow=classic;html=1;rounded=0;exitX=0.5;exitY=1;exitDx=0;exitDy=0;edgeStyle=elbowEdgeStyle;" edge="1" parent="WIyWlLk6GJQsqaUBKTNV-1" source="hkzROTVasC-A0H3_cOfX-24">
          <mxGeometry width="50" height="50" relative="1" as="geometry">
            <mxPoint x="380" y="1080" as="sourcePoint" />
            <mxPoint x="420" y="980" as="targetPoint" />
          </mxGeometry>
        </mxCell>
        <mxCell id="Za5lP8cGglgqO1tzgdOd-1" value="" style="endArrow=classic;html=1;rounded=0;exitX=0.5;exitY=1;exitDx=0;exitDy=0;" edge="1" parent="WIyWlLk6GJQsqaUBKTNV-1" source="hkzROTVasC-A0H3_cOfX-33">
          <mxGeometry width="50" height="50" relative="1" as="geometry">
            <mxPoint x="380" y="1080" as="sourcePoint" />
            <mxPoint x="220" y="1030" as="targetPoint" />
          </mxGeometry>
        </mxCell>
        <mxCell id="Za5lP8cGglgqO1tzgdOd-2" value="desea reservar" style="rhombus;whiteSpace=wrap;html=1;" vertex="1" parent="WIyWlLk6GJQsqaUBKTNV-1">
          <mxGeometry x="170" y="1030" width="100" height="80" as="geometry" />
        </mxCell>
        <mxCell id="Za5lP8cGglgqO1tzgdOd-3" value="" style="endArrow=classic;html=1;rounded=0;exitX=0.5;exitY=1;exitDx=0;exitDy=0;" edge="1" parent="WIyWlLk6GJQsqaUBKTNV-1" source="Za5lP8cGglgqO1tzgdOd-2">
          <mxGeometry width="50" height="50" relative="1" as="geometry">
            <mxPoint x="380" y="1080" as="sourcePoint" />
            <mxPoint x="220" y="1140" as="targetPoint" />
          </mxGeometry>
        </mxCell>
        <mxCell id="Za5lP8cGglgqO1tzgdOd-4" value="Fin" style="rounded=1;whiteSpace=wrap;html=1;" vertex="1" parent="WIyWlLk6GJQsqaUBKTNV-1">
          <mxGeometry x="180" y="1140" width="80" height="20" as="geometry" />
        </mxCell>
        <mxCell id="Za5lP8cGglgqO1tzgdOd-5" value="si" style="text;html=1;align=center;verticalAlign=middle;whiteSpace=wrap;rounded=0;" vertex="1" parent="WIyWlLk6GJQsqaUBKTNV-1">
          <mxGeometry x="215" y="1100" width="60" height="30" as="geometry" />
        </mxCell>
        <mxCell id="Za5lP8cGglgqO1tzgdOd-7" value="no" style="text;strokeColor=none;fillColor=none;align=left;verticalAlign=middle;spacingLeft=4;spacingRight=4;overflow=hidden;points=[[0,0.5],[1,0.5]];portConstraint=eastwest;rotatable=0;whiteSpace=wrap;html=1;" vertex="1" parent="WIyWlLk6GJQsqaUBKTNV-1">
          <mxGeometry x="120" y="1040" width="80" height="30" as="geometry" />
        </mxCell>
        <mxCell id="Za5lP8cGglgqO1tzgdOd-10" value="" style="endArrow=classic;startArrow=classic;html=1;rounded=0;exitX=1;exitY=0.5;exitDx=0;exitDy=0;" edge="1" parent="WIyWlLk6GJQsqaUBKTNV-1" source="hkzROTVasC-A0H3_cOfX-24">
          <mxGeometry width="50" height="50" relative="1" as="geometry">
            <mxPoint x="670" y="870" as="sourcePoint" />
            <mxPoint x="280" y="210" as="targetPoint" />
            <Array as="points">
              <mxPoint x="700" y="870" />
              <mxPoint x="690" y="210" />
            </Array>
          </mxGeometry>
        </mxCell>
        <mxCell id="Za5lP8cGglgqO1tzgdOd-12" value="" style="endArrow=classic;startArrow=classic;html=1;rounded=0;exitX=0;exitY=0.5;exitDx=0;exitDy=0;entryX=0;entryY=0.5;entryDx=0;entryDy=0;" edge="1" parent="WIyWlLk6GJQsqaUBKTNV-1" source="Za5lP8cGglgqO1tzgdOd-2" target="hkzROTVasC-A0H3_cOfX-19">
          <mxGeometry width="50" height="50" relative="1" as="geometry">
            <mxPoint x="330" y="1020" as="sourcePoint" />
            <mxPoint x="90" y="750" as="targetPoint" />
            <Array as="points">
              <mxPoint x="10" y="1070" />
              <mxPoint x="10" y="750" />
            </Array>
          </mxGeometry>
        </mxCell>
      </root>
    </mxGraphModel>
  </diagram>
</mxfile>
